# Blender 3.4.1
# www.blender.org
mtllib rail.mtl
o rail.001
v 0.211359 -0.125890 -0.125889
v 0.211359 0.100201 -0.125889
v 0.211359 -0.125890 -0.000000
v 0.211359 0.115100 -0.114000
v 0.211359 0.122858 -0.096589
v 0.211359 0.122858 -0.000000
v 0.238220 -0.117529 -0.000000
v 0.238220 -0.125890 -0.000000
v 0.238220 0.097274 -0.117529
v 0.238220 0.100201 -0.125889
v 0.238220 -0.117529 -0.117529
v 0.238220 -0.125890 -0.125889
v 0.238220 0.114498 0.000000
v 0.238220 0.122858 0.000000
v 0.238220 0.114498 -0.094811
v 0.238220 0.122858 -0.096589
v 0.238220 0.115100 -0.114000
v 0.238220 0.108292 -0.108736
v -0.211359 -0.125890 -0.125889
v -0.211359 0.100201 -0.125889
v -0.211359 -0.125890 -0.000000
v -0.211359 0.115100 -0.114000
v -0.211359 0.122858 -0.096589
v -0.211359 0.122858 0.000000
v -0.238220 -0.117529 -0.000000
v -0.238220 -0.125890 -0.000000
v -0.238220 0.097274 -0.117529
v -0.238220 0.100201 -0.125889
v -0.238220 -0.117529 -0.117529
v -0.238220 -0.125890 -0.125889
v -0.238220 0.114498 0.000000
v -0.238220 0.122858 0.000000
v -0.238220 0.114498 -0.094811
v -0.238220 0.122858 -0.096589
v -0.238220 0.115100 -0.114000
v -0.238220 0.108292 -0.108736
v 0.211359 -0.125890 0.125890
v 0.211359 0.100201 0.125890
v 0.211359 0.115100 0.114000
v 0.211359 0.122858 0.096589
v 0.238220 0.097274 0.117529
v 0.238220 0.100201 0.125890
v 0.238220 -0.117529 0.117529
v 0.238220 -0.125890 0.125890
v 0.238220 0.114498 0.094811
v 0.238220 0.122858 0.096589
v 0.238220 0.115100 0.114000
v 0.238220 0.108292 0.108736
v -0.211359 -0.125890 0.125890
v -0.211359 0.100201 0.125890
v -0.211359 0.115100 0.114000
v -0.211359 0.122858 0.096589
v -0.238220 0.097274 0.117529
v -0.238220 0.100201 0.125890
v -0.238220 -0.117529 0.117529
v -0.238220 -0.125890 0.125890
v -0.238220 0.114498 0.094811
v -0.238220 0.122858 0.096589
v -0.238220 0.115100 0.114000
v -0.238220 0.108292 0.108736
vn -0.0000 -0.0000 -1.0000
vn -0.0000 0.9134 -0.4070
vn -0.0000 1.0000 -0.0000
vn -0.0000 0.6237 -0.7816
vn -0.0000 -1.0000 -0.0000
vn 0.6846 0.4546 -0.5698
vn 0.6846 0.4547 -0.5698
vn 0.6846 -0.0000 -0.7289
vn 0.6846 -0.7289 -0.0000
vn 0.6846 -0.7289 -0.0001
vn 0.6846 0.6658 -0.2966
vn 0.6846 0.6658 -0.2967
vn 0.6846 0.7289 -0.0000
vn 1.0000 -0.0000 -0.0000
vn -0.6846 0.4547 -0.5698
vn -0.6846 0.4546 -0.5698
vn -0.6846 -0.0000 -0.7289
vn -0.6846 -0.7289 -0.0000
vn -0.6846 -0.7289 0.0002
vn -0.6846 0.6658 -0.2967
vn -0.6846 0.6658 -0.2966
vn -0.6846 0.7289 -0.0000
vn -1.0000 -0.0000 -0.0000
vn -0.0000 -0.0000 1.0000
vn -0.0000 0.9134 0.4070
vn -0.0000 0.6238 0.7816
vn 0.6846 0.4547 0.5697
vn 0.6846 0.4546 0.5698
vn 0.6846 0.4546 0.5697
vn 0.6846 -0.0000 0.7289
vn 0.6846 -0.7289 -0.0002
vn 0.6846 0.6658 0.2967
vn 0.6846 0.6658 0.2966
vn -0.6846 0.4546 0.5698
vn -0.6846 0.4547 0.5697
vn -0.6846 0.4546 0.5697
vn -0.6846 -0.0000 0.7289
vn -0.6846 -0.7289 0.0001
vn -0.6846 0.6658 0.2966
vn -0.6846 0.6658 0.2967
vn 0.6846 0.4547 -0.5697
vn 0.6846 0.4546 -0.5697
vn 0.6845 0.6658 -0.2968
vn 0.6845 0.6658 -0.2967
vn -0.6846 0.4546 -0.5697
vn -0.6846 0.4547 -0.5697
vn -0.6846 -0.7289 -0.0001
vn -0.6845 0.6658 -0.2968
vn -0.6845 0.6658 -0.2967
vn 0.6846 -0.7289 0.0001
vn 0.6845 0.6658 0.2968
vn 0.6845 0.6658 0.2967
vn -0.6845 0.6658 0.2968
vn -0.6845 0.6658 0.2967
vt 0.000000 0.000000
vt 0.000000 0.000000
vt 0.000000 0.000000
vt 0.000000 0.000000
vt 0.000000 0.000000
vt 0.000000 0.000000
vt 0.000000 0.000000
vt 0.000000 0.000000
vt 0.000000 0.000000
vt 0.000000 0.000000
vt 0.000000 0.000000
vt 0.000000 0.000000
vt 0.000000 0.000000
vt 0.000000 0.000000
vt 0.000000 0.000000
vt 0.000000 0.000000
vt 0.000000 0.000000
vt 0.000000 0.000000
vt 0.000000 0.000000
vt 0.000000 0.000000
vt 0.000000 0.000000
vt 0.000000 0.000000
vt 0.000000 0.000000
vt 0.000000 0.000000
vt 0.000000 0.000000
vt 0.000000 0.000000
vt 0.000000 0.000000
vt 0.000000 0.000000
vt 0.000000 0.000000
vt 0.000000 0.000000
vt 0.000000 0.000000
vt 0.000000 0.000000
vt 0.000000 0.000000
vt 0.000000 0.000000
vt 0.000000 0.000000
vt 0.000000 0.000000
vt 0.000000 0.000000
vt 0.000000 0.000000
vt 0.000000 0.000000
vt 0.000000 0.000000
vt 0.000000 0.000000
vt 0.000000 0.000000
vt 0.000000 0.000000
vt 0.000000 0.000000
vt 0.000000 0.000000
vt 0.000000 0.000000
vt 0.000000 0.000000
vt 0.000000 0.000000
vt 0.000000 0.000000
vt 0.000000 0.000000
vt 0.000000 0.000000
vt 0.000000 0.000000
vt 0.000000 0.000000
vt 0.000000 0.000000
vt 0.000000 0.000000
vt 0.000000 0.000000
vt 0.000000 0.000000
vt 0.000000 0.000000
vt 0.000000 0.000000
vt 0.000000 0.000000
s 0
f 2/2/1 12/12/1 1/1/1
f 5/5/2 17/17/2 4/4/2
f 6/6/3 16/16/3 5/5/3
f 4/4/4 10/10/4 2/2/4
f 3/3/5 12/12/5 8/8/5
f 17/17/6 9/9/7 10/10/7
f 11/11/8 10/10/8 9/9/8
f 11/11/9 8/8/10 12/12/9
f 16/16/11 18/18/12 17/17/12
f 14/14/13 15/15/13 16/16/13
f 13/13/14 7/7/14 9/9/14
f 30/30/1 20/20/1 19/19/1
f 35/35/2 23/23/2 22/22/2
f 34/34/3 24/24/3 23/23/3
f 28/28/4 22/22/4 20/20/4
f 26/26/5 19/19/5 21/21/5
f 27/27/15 35/35/16 28/28/15
f 28/28/17 29/29/17 27/27/17
f 29/29/18 26/26/19 25/25/18
f 36/36/20 34/34/21 35/35/20
f 33/33/22 32/32/22 34/34/22
f 33/33/23 36/36/23 27/27/23
f 44/44/24 38/38/24 37/37/24
f 39/39/25 46/46/25 40/40/25
f 40/40/3 14/14/3 6/6/3
f 38/38/26 47/47/26 39/39/26
f 8/8/5 37/37/5 3/3/5
f 41/41/27 47/47/28 42/42/29
f 42/42/30 43/43/30 41/41/30
f 43/43/9 8/8/31 7/7/9
f 48/48/32 46/46/33 47/47/32
f 45/45/13 14/14/13 46/46/13
f 45/45/14 48/48/14 41/41/14
f 50/50/24 56/56/24 49/49/24
f 52/52/25 59/59/25 51/51/25
f 24/24/3 58/58/3 52/52/3
f 51/51/26 54/54/26 50/50/26
f 49/49/5 26/26/5 21/21/5
f 59/59/34 53/53/35 54/54/36
f 55/55/37 54/54/37 53/53/37
f 55/55/18 26/26/38 56/56/18
f 58/58/39 60/60/40 59/59/40
f 32/32/22 57/57/22 58/58/22
f 31/31/23 25/25/23 53/53/23
f 2/2/1 10/10/1 12/12/1
f 5/5/2 16/16/2 17/17/2
f 6/6/3 14/14/3 16/16/3
f 4/4/4 17/17/4 10/10/4
f 3/3/5 1/1/5 12/12/5
f 17/17/41 18/18/41 9/9/42
f 11/11/8 12/12/8 10/10/8
f 11/11/9 7/7/9 8/8/9
f 16/16/43 15/15/44 18/18/43
f 14/14/13 13/13/13 15/15/13
f 7/7/14 11/11/14 9/9/14
f 9/9/14 18/18/14 15/15/14
f 15/15/14 13/13/14 9/9/14
f 30/30/1 28/28/1 20/20/1
f 35/35/2 34/34/2 23/23/2
f 34/34/3 32/32/3 24/24/3
f 28/28/4 35/35/4 22/22/4
f 26/26/5 30/30/5 19/19/5
f 27/27/45 36/36/46 35/35/46
f 28/28/17 30/30/17 29/29/17
f 29/29/18 30/30/18 26/26/47
f 36/36/48 33/33/49 34/34/48
f 33/33/22 31/31/22 32/32/22
f 27/27/23 29/29/23 25/25/23
f 25/25/23 31/31/23 27/27/23
f 31/31/23 33/33/23 27/27/23
f 44/44/24 42/42/24 38/38/24
f 39/39/25 47/47/25 46/46/25
f 40/40/3 46/46/3 14/14/3
f 38/38/26 42/42/26 47/47/26
f 8/8/5 44/44/5 37/37/5
f 41/41/29 48/48/27 47/47/27
f 42/42/30 44/44/30 43/43/30
f 43/43/9 44/44/9 8/8/50
f 48/48/51 45/45/52 46/46/51
f 45/45/13 13/13/13 14/14/13
f 41/41/14 43/43/14 7/7/14
f 7/7/14 13/13/14 41/41/14
f 13/13/14 45/45/14 41/41/14
f 49/49/5 21/21/5 3/3/5 37/37/5
f 50/50/24 54/54/24 56/56/24
f 52/52/25 58/58/25 59/59/25
f 24/24/3 32/32/3 58/58/3
f 51/51/26 59/59/26 54/54/26
f 49/49/5 56/56/5 26/26/5
f 59/59/35 60/60/35 53/53/36
f 55/55/37 56/56/37 54/54/37
f 55/55/18 25/25/18 26/26/18
f 58/58/53 57/57/54 60/60/53
f 32/32/22 31/31/22 57/57/22
f 25/25/23 55/55/23 53/53/23
f 53/53/23 60/60/23 57/57/23
f 57/57/23 31/31/23 53/53/23
f 50/50/24 49/49/24 37/37/24 38/38/24
f 51/51/26 50/50/26 38/38/26 39/39/26
f 52/52/25 51/51/25 39/39/25 40/40/25
f 24/24/3 52/52/3 40/40/3 6/6/3
f 23/23/3 24/24/3 6/6/3 5/5/3
f 22/22/2 23/23/2 5/5/2 4/4/2
f 20/20/4 22/22/4 4/4/4 2/2/4
f 19/19/1 20/20/1 2/2/1 1/1/1
f 21/21/5 19/19/5 1/1/5 3/3/5
